PathFileType	4	(X/Y/Z)	Falisse_et_al_2022_v1.trc
DataRate	CameraRate	NumFrames	NumMarkers	Units	OrigDataRate	OrigDataStartFrame	OrigNumFrames
0	0	4	47	m	0	150	200
Frame#	Time	RASI			LASI			CLAV			RSHO			LSHO			RKNE			RKNE_med			RTHI1			RTHI2			RTHI3			RANK			RANK_med			RTIB1			RTIB2			RTIB3			LKNE			LKNE_med			LTHI1			LTHI2			LTHI3			LANK			LANK_med			LTIB1			LTIB2			LTIB3			RPSI			LPSI			RELB			LELB			RW1			RW2			LW1			LW2			hum_l2			hum_r2			rad_l2			rad_r2			LH			RH			Foot_r1			Foot_r4			Foot_r6			Foot_r7			foot_l1			foot_l4			foot_l6			foot_l7		
		X1	Y1	Z1	X2	Y2	Z2	X3	Y3	Z3	X4	Y4	Z4	X5	Y5	Z5	X6	Y6	Z6	X7	Y7	Z7	X8	Y8	Z8	X9	Y9	Z9	X10	Y10	Z10	X11	Y11	Z11	X12	Y12	Z12	X13	Y13	Z13	X14	Y14	Z14	X15	Y15	Z15	X16	Y16	Z16	X17	Y17	Z17	X18	Y18	Z18	X19	Y19	Z19	X20	Y20	Z20	X21	Y21	Z21	X22	Y22	Z22	X23	Y23	Z23	X24	Y24	Z24	X25	Y25	Z25	X26	Y26	Z26	X27	Y27	Z27	X28	Y28	Z28	X29	Y29	Z29	X30	Y30	Z30	X31	Y31	Z31	X32	Y32	Z32	X33	Y33	Z33	X34	Y34	Z34	X35	Y35	Z35	X36	Y36	Z36	X37	Y37	Z37	X38	Y38	Z38	X39	Y39	Z39	X40	Y40	Z40	X41	Y41	Z41	X42	Y42	Z42	X43	Y43	Z43	X44	Y44	Z44	X45	Y45	Z45	X46	Y46	Z46	X47	Y47	Z47
150	1.65399614	2.177645314881633	0.9009291765801879	0.1334443116251207	2.2046601751685815	0.9100061758053445	-0.12132548034932517	2.2106945845493686	1.3330927247536226	0.00808549811347591	2.1050352876730964	1.3668978400275258	0.18824496340457658	2.137010569093464	1.3737578627527391	-0.1545709205775479	1.9632755353926294	0.43970437917808197	0.10805353268179782	1.9061526084129476	0.4438083349795852	0.0047822125700860835	2.120338464220654	0.7028346576394464	0.17844763194635324	2.0612162346152556	0.717109101521262	0.20368974548618315	2.0789920234862875	0.663963723411154	0.18608810178230895	1.7379299345236443	0.11424682681260512	0.08621353677593364	1.7546565822129994	0.1312084614609183	0.004391416863023467	1.869398921829157	0.2863641902652836	0.11832767057874635	1.8025552491631511	0.3123223615496521	0.13355149089125645	1.8211616967021167	0.25900916725443246	0.12257680406957697	2.322230406690618	0.4861355695021799	-0.10593666776331281	2.299658624557276	0.4758188452209093	-0.014373203743727248	2.299668164955994	0.718805132272097	-0.10567844213946823	2.269439842749695	0.6990305083021	-0.16532579925696184	2.3072862142380957	0.6638886372896333	-0.13123678128533006	2.3939689017220993	0.09651689450386747	-0.09461181450468464	2.37497582410604	0.1078865739271706	-0.01144384012611449	2.372527330952623	0.2971145452054683	-0.10245931817015708	2.318067372293849	0.2777496770668073	-0.1361577203010011	2.3624662754663346	0.24324899924964402	-0.11705088252795479	2.021333938613833	0.9532643560783701	0.01620824819409469	2.02781553566369	0.9608272738138827	-0.031243176025802843	2.0587010937607735	1.0548122944085048	0.21436553403691527	2.054863151027654	1.0547795405407923	-0.2158435731956945	2.3163249868642195	1.0025695150502218	0.1544904823999612	2.283620048302181	0.9307503493906629	0.15515300956041073	2.1201760329248747	0.8335359939280247	-0.28163723157889303	2.04643983023459	0.8562156174858309	-0.30716750722940256	2.1116457754455986	1.2174984880529929	-0.21243992223907898	2.088729996318278	1.2055418750722535	0.2166606577276508	2.0905617884119208	0.9655735856004588	-0.27037216389596413	2.2246273969212003	0.9851587238705624	0.1921454446893529	2.089227520041053	0.7903915404041468	-0.33260265912216885	2.3565151246754494	0.9521085950514147	0.16059786990373226	1.6955401293326848	0.13245291859340735	0.050981136685746414	1.7613666833711585	0.058241978799353625	0.08673679510408772	1.8601726767339617	0.019904039887022246	0.0550299810750359	1.8842981253590534	0.03771303008761359	0.01466208111365451	2.3418024652541645	0.05344389776415774	-0.05574713434870747	2.443116465826607	0.07870632346044536	-0.09304859648769465	2.527945925884018	0.1260504352287062	-0.05601423081256594	2.5568291701246872	0.1324886327685156	-0.01775237461631478
151	1.66502278	2.1945095463383293	0.8989415743143546	0.13311468489358178	2.223027568863657	0.9086196909574389	-0.12146908902660922	2.227550050837859	1.3316884849661976	0.007279269965840861	2.120961412107983	1.3656474150186086	0.18686144873771374	2.1545498066955173	1.3718383351337335	-0.15581288806226856	1.9814763810144957	0.437550315044784	0.10744569315793788	1.9257813998415538	0.4408787344081456	0.003369627252996943	2.136601900555121	0.7016353271073977	0.17855698521201718	2.0770835013436377	0.7158317975974812	0.20289589353866525	2.095292565900737	0.6626559920230555	0.1858374230621467	1.7426006248303432	0.12033516777049602	0.08556713952943937	1.7608194295822586	0.1360061271042053	0.003806309745965915	1.880366077544363	0.28742720340181943	0.11782749727737882	1.814436141467502	0.3160912275040828	0.13215527407568978	1.8310542595993646	0.26200995110914743	0.12176325694405854	2.336598913593213	0.4824115284678035	-0.10450455239982911	2.3127717006485637	0.4722748714901344	-0.013239552534359655	2.3166222159939722	0.7153173935193307	-0.10431363425746489	2.2869235656739595	0.6959269181594829	-0.16435190590275078	2.3239482332847694	0.6603395738006715	-0.12982546691519334	2.400006776303857	0.09106634054526247	-0.09312273974507507	2.3802012170334246	0.10267091486259738	-0.010177021069234668	2.382859533157234	0.2920830892039764	-0.10080261923589551	2.3284391997627845	0.2739256774292261	-0.13522939997697422	2.3718620010597755	0.23846775400563852	-0.11563790650511209	2.0388987753586783	0.951576502567991	0.015083484715420474	2.045661042032711	0.9592511631374576	-0.032310795741827325	2.07271535786864	1.0541265901489347	0.2134983592444722	2.068704338827576	1.0541531008639073	-0.21689716620119767	2.331159850258183	1.0094942428214912	0.1514760193883593	2.300712959255371	0.9366879332178996	0.1509538941265414	2.129589811364471	0.8326816082623142	-0.2847586342516031	2.0560463181080277	0.8568066644861985	-0.3095078594623324	2.1272476422915307	1.2162480597125338	-0.21354857089995244	2.103865579820192	1.2046311627922024	0.2156069973048934	2.1023512347951967	0.9651248133484664	-0.272321262518896	2.2403008956592365	0.9885106496434806	0.1893418221977767	2.0974800751112594	0.7904402951598598	-0.3357622167668795	2.3729419021781823	0.9602075857084285	0.15636860301122013	1.7016090491817113	0.1401737153206657	0.05019990954151628	1.7634900472304411	0.06273825090735813	0.08616318028006713	1.8605523590915565	0.0197529624370371	0.05503575617161127	1.885445846683897	0.03779968053253652	0.014979007469740038	2.345950312782901	0.04984062933315729	-0.05493266112554439	2.448395748745567	0.0718927800206958	-0.09116457029733761	2.534432272802608	0.11611468377127077	-0.0530701322443398	2.5631681699141904	0.12133409769992012	-0.014511548118515377
152	1.67604942	2.211544162715084	0.8970228532426052	0.1327379312595171	2.2414569826114747	0.9072527908810494	-0.12166413845635382	2.2444392670823543	1.3303411614880722	0.0064034002699747475	2.136955861738801	1.3644341725162223	0.18542599645222585	2.172081099850175	1.369953909897264	-0.15710569403934171	2.0008333619974086	0.435137342269373	0.10703884850590789	1.946573951370401	0.43750633659505334	0.002181130516925242	2.153341474026848	0.7005912059481993	0.17871282069706962	2.093404492327507	0.7145634614767568	0.20213708968937194	2.112173034472659	0.6614012072440104	0.18565242117070058	1.748043092856699	0.12710052686720574	0.08491831240847661	1.767724077850399	0.14138665134218753	0.0032427188870801163	1.8922169518222842	0.28864726817964814	0.11741981663898426	1.8273767620121417	0.3200979955515041	0.1308462633015304	1.8418654012876485	0.26530325937297394	0.12101994426113763	2.3504184873088847	0.47843796237139213	-0.10334364835954227	2.3253614427536533	0.4684998259243718	-0.012386702203933578	2.3333989927403134	0.7115785196595031	-0.10309022356158894	2.304185578986932	0.6926362000861027	-0.16350842788542921	2.34033484839851	0.6565414563498778	-0.12858336704095114	2.4040963251701584	0.08528788726140168	-0.0923382318772399	2.383555817260218	0.09715167623742299	-0.009608209420534669	2.391942696849284	0.2866825078715175	-0.09963465879656648	2.3375260514444913	0.269948230098422	-0.1347809270425288	2.3798276558577527	0.23339067546254905	-0.11476218368641156	2.0565836942657216	0.9499193928051736	0.013970422011811909	2.0636057347962926	0.9576967179368018	-0.03336931442673922	2.0868137294970057	1.0534953057230205	0.212573118752025	2.0825562909759197	1.0536277240932488	-0.21805097870670243	2.3457587170434215	1.0157027625023363	0.1487380872209686	2.3173465990445195	0.9420947689990509	0.147107336517468	2.1395022604324767	0.8318973503933806	-0.2875603274058152	2.0661579679325577	0.8572834653663916	-0.31162997241692714	2.142880235923355	1.2150689868177174	-0.21472719907952975	2.1190778042611584	1.2037675162934995	0.2144969894618675	2.114391162798691	0.9646700583771977	-0.2741935165333253	2.255745397984358	0.9915366407378455	0.18672599038382204	2.1063747074024444	0.790439066433696	-0.3385554746810563	2.388924148757596	0.9675244246948412	0.15253875526339494	1.7085872902151962	0.14861062506512768	0.049436564526338315	1.7661372491224026	0.0679711812554542	0.08554955723632038	1.861109839240057	0.020183146772863036	0.054983974844297095	1.8869692594230567	0.038030107680025474	0.015245414305752141	2.3481875763133595	0.045954393312830646	-0.05482213218863019	2.4516313906740295	0.06472807490980659	-0.09005055951047093	2.538806528236349	0.10570768080405776	-0.050932612919946156	2.567384235045465	0.10966016736364215	-0.012103268954925014
153	1.68707606	2.228527117748242	0.8953577117127512	0.1322971614200194	2.2596985680980506	0.90606292609701	-0.12193419101715675	2.2612569918676186	1.3291827332621675	0.005436241172436643	2.1529495220466	1.3634239201354794	0.18393312874060008	2.189491848738888	1.3682688169734467	-0.15846049587687291	2.021298851854585	0.43261122701160915	0.10690422551357995	1.968452709243327	0.4338172474664931	0.0013075043365690792	2.1704122171487947	0.6998965294230798	0.17891400034939342	2.1100381054992723	0.7134702614332702	0.2014324931820146	2.129508932019021	0.660377550169771	0.1855492104337744	1.7544070574905208	0.13464132013776553	0.08437344779304957	1.7754845903623884	0.1474591634295444	0.0028027569703523644	1.9050010095513903	0.29015484782584683	0.11718812931885876	1.8414293843251308	0.3244341552867054	0.1297278854134672	1.853667973544666	0.2690002358229876	0.12044145264196725	2.364132467019234	0.4747592809461871	-0.10221765210621933	2.3379071173649955	0.46506214123110157	-0.011564551725174538	2.349995842141907	0.7080923689437503	-0.10194792129972996	2.321249121515043	0.6895595174370441	-0.16271595480333925	2.356544041393281	0.6529932835938745	-0.12740959202436608	2.40804776671433	0.08003583285901938	-0.09166095529637054	2.386827470741583	0.0921933672528284	-0.00914542969030542	2.4008850119720426	0.28168407863360434	-0.0985472938284182	2.346495707713405	0.26636684445703507	-0.1343754034737326	2.3876561594154984	0.22874052059642946	-0.11396198654110185	2.074154159540571	0.9484700576990618	0.012862742550552846	2.0814101285728075	0.9563358648831288	-0.034427071111945574	2.1009965871133067	1.0530552222237244	0.21158181526568626	2.096483006644375	1.0532743549181451	-0.21924981852159395	2.3601888892427976	1.021171130323335	0.1462522484942801	2.3335391130313434	0.9469352921777334	0.14363036609424024	2.1499640591604843	0.8312678169411518	-0.2900152970719537	2.0768239306520484	0.8577461131342725	-0.3135229409176559	2.158518205654504	1.2140664962529935	-0.21595914627569668	2.134323862423845	1.2030974589868846	0.21332221065662346	2.126739606569763	0.9643108498406203	-0.2759437995893586	2.270978639428344	0.9942749214618234	0.18429965461869405	2.115963246283539	0.7904773795645305	-0.3409742419844411	2.404514587075397	0.9739912045156446	0.14910512756055158	1.7166107859270758	0.15782164234940077	0.04881714319913874	1.7694852368236644	0.0740628494908114	0.08497821303787545	1.862015269900543	0.021411026866933414	0.05491623549972443	1.889022389165126	0.038443227056373416	0.01549223022364558	2.3503789464864973	0.042676950002367535	-0.05480385469618728	2.454689893841718	0.0581178026040092	-0.08908099393723669	2.5429047032550214	0.09579106300756579	-0.04898212482030232	2.5712952592049616	0.09846801196696342	-0.00990290376615649
